<svg id="education" xmlns="http://www.w3.org/2000/svg" width="117.876" height="107.307" viewBox="0 0 117.876 107.307">
  <title>Artboard 11</title>
  <g>
    <path d="M117.874,20.381c0-.07,0-.14-.006-.21,0-.044-.008-.086-.01-.128-.006-.061-.01-.12-.015-.176s-.012-.086-.018-.127c-.007-.061-.015-.12-.024-.18-.006-.037-.013-.077-.02-.114-.012-.062-.023-.126-.036-.189-.008-.032-.016-.064-.023-.1-.016-.067-.033-.134-.053-.2-.007-.027-.015-.052-.022-.079-.022-.075-.045-.149-.07-.224,0-.018-.013-.035-.017-.052-.03-.084-.059-.167-.092-.251a.093.093,0,0,0-.01-.02,6.09,6.09,0,0,0-1.382-2.072c-.076-.079-.16-.157-.239-.226a6.968,6.968,0,0,0-3.358-1.642.155.155,0,0,1-.029,0c-.087-.018-.176-.031-.264-.045l-.077-.011c-.072-.01-.146-.019-.219-.027-.042-.005-.082-.01-.123-.012l-.006,0v-.852a6.053,6.053,0,0,0-.214-1.607c-.051-.189-.1-.348-.156-.495-.035-.1-.075-.2-.116-.3L111.257,11c-.032-.071-.063-.143-.1-.212a.194.194,0,0,1-.013-.03c-.093-.176-.177-.333-.261-.48-.012-.017-.025-.036-.037-.057a5.379,5.379,0,0,0-.3-.444.2.2,0,0,0-.029-.04,6.492,6.492,0,0,0-.552-.631,6.082,6.082,0,0,0-4.327-1.794H70.169a6.136,6.136,0,0,0-6.126,6.127v62.53c0,3.422,3.046,6.209,6.788,6.209l.008,0H73a1.242,1.242,0,1,0,0-2.484H70.823a4.052,4.052,0,0,1-4.3-3.73v-3.1a6.105,6.105,0,0,0,3.645,1.2h35.467a6.145,6.145,0,0,0,4.905-2.46c.1-.138.2-.284.318-.467a.692.692,0,0,0,.048-.079q.126-.216.242-.452c0-.01.011-.018.016-.027.087-.191.16-.363.218-.522s.11-.314.165-.515a6.262,6.262,0,0,0,.211-1.605V16.793a4.811,4.811,0,0,1,1.193.326c.061.025.128.05.19.079.033.015.063.034.093.05.095.047.185.094.275.147.017.009.03.022.047.031.1.063.2.128.3.2a.5.5,0,0,1,.043.035c.092.069.182.141.269.219.061.051.119.109.176.166s.112.119.165.178c.03.032.056.065.084.1.049.06.094.122.139.184.027.035.052.07.077.107l.119.192c.022.036.043.077.064.116.035.065.067.129.1.194l.055.131c.024.066.052.13.071.2a1.279,1.279,0,0,1,.045.149c.018.062.036.123.05.186s.025.126.035.188.018.105.025.157c.01.11.017.216.017.327,0,.011,0,.018,0,.028V75.959a4.05,4.05,0,0,1-4.3,3.729h-1.57a1.242,1.242,0,1,0,0,2.484h1.563l.007,0a6.528,6.528,0,0,0,6.787-6.215V20.475C117.875,20.443,117.874,20.411,117.874,20.381Zm-8.6,47.556a3.617,3.617,0,0,1-.124.954c-.032.117-.061.209-.094.3s-.082.206-.139.336c-.055.106-.112.211-.169.306-.005.007-.012.019-.017.025-.067.107-.125.193-.179.265a3.6,3.6,0,0,1-2.916,1.459H70.172a3.647,3.647,0,0,1-3.645-3.641v-54.5a3.646,3.646,0,0,1,3.642-3.642h35.47a3.62,3.62,0,0,1,2.57,1.065,3.859,3.859,0,0,1,.348.4l.015.019c.06.082.122.174.181.274.006,0,.008.01.013.017.055.095.108.194.156.293.02.042.04.084.058.126l.019.045c.02.045.035.088.053.133a.154.154,0,0,0,.012.034c.028.077.057.169.089.285a3.58,3.58,0,0,1,.124.952v54.5Z" fill="#0065a5"/>
    <path d="M103.573,46.248H72.235a1.242,1.242,0,0,0,0,2.484h31.338a1.242,1.242,0,0,0,0-2.484Z" fill="#0065a5"/>
    <path d="M103.573,50.881H72.235a1.242,1.242,0,1,0,0,2.484h31.338a1.242,1.242,0,1,0,0-2.484Z" fill="#0065a5"/>
    <path d="M103.573,55.514H72.235a1.242,1.242,0,1,0,0,2.484h31.338a1.242,1.242,0,1,0,0-2.484Z" fill="#0065a5"/>
    <path d="M103.573,60.145H72.235a1.244,1.244,0,0,0,0,2.487h31.338a1.244,1.244,0,0,0,0-2.487Z" fill="#0065a5"/>
    <path d="M103.573,64.778H72.235a1.242,1.242,0,1,0,0,2.483h31.338a1.242,1.242,0,1,0,0-2.483Z" fill="#0065a5"/>
    <path d="M103.574,14.11H72.236a1.241,1.241,0,0,0-1.242,1.242V42.857A1.241,1.241,0,0,0,72.236,44.1h31.338a1.243,1.243,0,0,0,1.242-1.243v-27.5A1.243,1.243,0,0,0,103.574,14.11ZM80.319,41.615,87.9,28.477l2.443,4.23L85.2,41.615Zm22.014,0H88.067L98.34,23.826l3.993,6.914Zm0-15.844-2.917-5.05a1.243,1.243,0,0,0-2.152,0l-5.488,9.5-2.8-4.852a1.241,1.241,0,0,0-2.15,0L77.451,41.615H73.478V16.594h28.855v9.177Z" fill="#0065a5"/>
    <path d="M73.478,16.594V41.615h3.973l9.374-16.244a1.242,1.242,0,0,1,2.151,0l2.8,4.852,5.488-9.5a1.243,1.243,0,0,1,2.152,0l2.917,5.05V16.594Zm6.238,10.424a4.277,4.277,0,1,1,4.275-4.278A4.282,4.282,0,0,1,79.716,27.018Z" fill="#a2cbeb"/>
    <path d="M79.716,18.465a4.277,4.277,0,1,0,4.275,4.275A4.282,4.282,0,0,0,79.716,18.465Zm0,6.069a1.793,1.793,0,1,1,1.791-1.794A1.8,1.8,0,0,1,79.716,24.534Z" fill="#0065a5"/>
    <path d="M60.463,8.056A7.969,7.969,0,0,0,52.6,0H12.471a7.968,7.968,0,0,0-7.86,8.056V76.443c0,.035.008.064.01.1s-.01.064-.01.095v4.787a7.973,7.973,0,0,0,7.865,8.059H52.6a7.974,7.974,0,0,0,7.865-8.059V76.637c0-.031-.007-.064-.009-.1s.009-.063.009-.1l0-62.9,0,0ZM57.979,81.424A5.489,5.489,0,0,1,52.6,87H12.476A5.489,5.489,0,0,1,7.1,81.424V77.686H57.979v3.738ZM7.1,75.2V14.779H57.977l0,60.423ZM57.979,12.294H7.1V8.056a5.482,5.482,0,0,1,5.376-5.571H52.6a5.484,5.484,0,0,1,5.381,5.571Z" fill="#0065a5"/>
    <path d="M7.1,77.686v3.738A5.489,5.489,0,0,0,12.476,87H52.6a5.489,5.489,0,0,0,5.381-5.577V77.686Zm31.43,5.752H26.549a1.241,1.241,0,1,1,0-2.482H38.525a1.241,1.241,0,1,1,0,2.482Z" fill="#a2cbeb"/>
    <path d="M52.6,2.485H12.471A5.482,5.482,0,0,0,7.1,8.056v4.238H57.979V8.056A5.484,5.484,0,0,0,52.6,2.485Zm-14.073,6.5H26.549a1.242,1.242,0,0,1,0-2.484H38.525a1.242,1.242,0,1,1,0,2.484Z" fill="#a2cbeb"/>
    <path d="M39.768,82.2a1.243,1.243,0,0,1-1.243,1.242H26.549a1.241,1.241,0,1,1,0-2.482H38.525A1.24,1.24,0,0,1,39.768,82.2Z" fill="#0065a5"/>
    <path d="M39.768,7.741a1.243,1.243,0,0,1-1.243,1.242H26.549a1.242,1.242,0,0,1,0-2.484H38.525A1.243,1.243,0,0,1,39.768,7.741Z" fill="#0065a5"/>
    <path d="M52.314,50.552H12.76a1.243,1.243,0,0,0,0,2.485H52.314a1.243,1.243,0,0,0,0-2.485Z" fill="#0065a5"/>
    <path d="M52.314,55.186H12.76a1.242,1.242,0,1,0,0,2.483H52.314a1.242,1.242,0,1,0,0-2.483Z" fill="#0065a5"/>
    <path d="M52.314,59.817H12.76a1.242,1.242,0,1,0,0,2.484H52.314a1.242,1.242,0,1,0,0-2.484Z" fill="#0065a5"/>
    <path d="M52.314,64.45H12.76a1.243,1.243,0,0,0,0,2.485H52.314a1.243,1.243,0,0,0,0-2.485Z" fill="#0065a5"/>
    <path d="M52.314,69.082H12.76a1.242,1.242,0,1,0,0,2.483H52.314a1.242,1.242,0,1,0,0-2.483Z" fill="#0065a5"/>
    <path d="M52.313,17.877H12.759a1.242,1.242,0,0,0-1.242,1.241V46.623a1.243,1.243,0,0,0,1.242,1.242H52.313a1.243,1.243,0,0,0,1.242-1.242v-27.5A1.242,1.242,0,0,0,52.313,17.877Zm-1.242,27.5H14V20.36H51.071Z" fill="#0065a5"/>
    <path d="M14,20.36V45.381H51.071V20.36ZM37.825,34.923l-9.333,5.388a1.242,1.242,0,0,1-1.863-1.076V28.461a1.242,1.242,0,0,1,1.863-1.075l9.333,5.386a1.241,1.241,0,0,1,0,2.151Z" fill="#a2cbeb"/>
    <path d="M37.825,32.772l-9.333-5.386a1.242,1.242,0,0,0-1.863,1.075V39.235a1.243,1.243,0,0,0,1.863,1.076l9.333-5.388a1.241,1.241,0,0,0,0-2.151Zm-8.712,4.312V30.613l5.607,3.235Z" fill="#0065a5"/>
    <path d="M100.417,75.865a7.011,7.011,0,0,0-7,7,1.242,1.242,0,1,0,2.484,0,4.519,4.519,0,1,1,9.038,0V93.1a7,7,0,0,0-11.408,4.1h-4.2a7,7,0,0,0-11.41-4.1V82.867a4.519,4.519,0,1,1,9.037,0,1.243,1.243,0,0,0,2.485,0,7,7,0,0,0-14.006,0V98.439a7,7,0,0,0,13.894,1.24h4.2a7,7,0,0,0,13.892-1.237V82.864A7.013,7.013,0,0,0,100.417,75.865ZM82.441,102.957a4.518,4.518,0,1,1,4.518-4.518A4.524,4.524,0,0,1,82.441,102.957Zm17.976,0a4.518,4.518,0,1,1,4.519-4.518A4.523,4.523,0,0,1,100.417,102.957Z" fill="#0065a5"/>
    <path d="M104.936,98.439a4.519,4.519,0,1,1-4.519-4.518A4.523,4.523,0,0,1,104.936,98.439Z" fill="#a2cbeb"/>
    <path d="M86.959,98.439a4.519,4.519,0,1,1-4.518-4.518A4.522,4.522,0,0,1,86.959,98.439Z" fill="#a2cbeb"/>
    <path d="M70.831,93.229H66.274a3.612,3.612,0,0,0-6.324,0H10.707c-.014,0-.027,0-.041,0-.046,0-.09.009-.135.015a1.043,1.043,0,0,0-.114.021.948.948,0,0,0-.112.033q-.063.025-.126.048c-.013.009-.025.011-.037.018L.669,98.232l-.012.008a1.112,1.112,0,0,0-.129.086.513.513,0,0,0-.077.051.983.983,0,0,0-.088.083c-.029.03-.06.058-.086.089s-.036.054-.053.078a1.019,1.019,0,0,0-.081.128.055.055,0,0,0-.011.016c-.012.023-.02.049-.032.078a1.393,1.393,0,0,0-.049.131.892.892,0,0,0-.028.116c-.007.041-.015.081-.02.119a3.631,3.631,0,0,0,0,.241c.005.041.013.081.02.119a.963.963,0,0,0,.028.118,1.107,1.107,0,0,0,.049.129.818.818,0,0,0,.032.082.094.094,0,0,1,.011.018c.009.016.02.029.027.044.029.048.061.094.094.14a.4.4,0,0,1,.039.046,1.181,1.181,0,0,0,.346.275c.008,0,.013.011.02.013l9.473,4.865c.016.009.037.017.056.026l.047.02a1.772,1.772,0,0,0,.2.064.2.2,0,0,1,.035,0,1.111,1.111,0,0,0,.228.024l0,0H59.95a3.612,3.612,0,0,0,6.324,0H70.83a1.239,1.239,0,0,0,1.241-1.239V94.471A1.241,1.241,0,0,0,70.831,93.229ZM9.466,102.167,3.955,99.335l5.511-2.828Zm50.029.79H11.95V95.713H59.5Zm4.75.733a1.105,1.105,0,0,1-.023.224.243.243,0,0,0-.012.043,1.131,1.131,0,0,1-2.231-.267V94.98a1.131,1.131,0,0,1,2.231-.266c0,.016.009.031.012.048a1.047,1.047,0,0,1,.023.218Zm5.342-.733H66.729V95.713h2.858Z" fill="#0065a5"/>
    <rect x="66.729" y="95.713" width="2.859" height="7.243" fill="#a2cbeb"/>
    <path d="M11.95,95.713v7.244H59.5V95.713Zm44.862,4.864H14.593a1.243,1.243,0,0,1,0-2.485H56.812a1.243,1.243,0,0,1,0,2.485Z" fill="#a2cbeb"/>
    <path d="M58.054,99.335a1.24,1.24,0,0,1-1.242,1.242H14.593a1.243,1.243,0,0,1,0-2.485H56.812A1.243,1.243,0,0,1,58.054,99.335Z" fill="#0065a5"/>
  </g>
</svg>
