<svg id="education" xmlns="http://www.w3.org/2000/svg" width="109.661" height="115.392" viewBox="0 0 109.661 115.392">
  <title>Artboard 10</title>
  <g>
    <path d="M47.071,102.87a5.329,5.329,0,0,0-1.014-1.329,5.319,5.319,0,0,0-1.6-.566,5.178,5.178,0,0,1-3.168-1.67c-.047-.067-.092-.133-.131-.2.039.068.084.134.131.2a5.178,5.178,0,0,0,3.168,1.67,5.339,5.339,0,0,1,1.6.566,5.348,5.348,0,0,1,1.014,1.329,5.277,5.277,0,0,0,2.516,2.49L47.413,107.2l2.174-1.836A5.277,5.277,0,0,1,47.071,102.87Z" fill="none"/>
    <path d="M63.389,88.587a8.625,8.625,0,0,0-5.212-7.047A8.623,8.623,0,0,1,63.389,88.587Z" fill="none"/>
    <path d="M62.592,102.87a10.44,10.44,0,0,1,.677-1,10.44,10.44,0,0,0-.677,1,5.294,5.294,0,0,1-2.52,2.49A5.285,5.285,0,0,0,62.592,102.87Z" fill="none"/>
    <path d="M62.141,99.532a6.976,6.976,0,0,1,2.453-.967,3.734,3.734,0,0,0,1.766-.722,3.722,3.722,0,0,0,.14-1.884,7.122,7.122,0,0,1,.166-2.648,6.729,6.729,0,0,1,1.391-2.171c.5-.6,1.026-1.221,1.026-1.674s-.522-1.073-1.026-1.677a6.7,6.7,0,0,1-1.391-2.168,7.1,7.1,0,0,1-.165-2.648,3.76,3.76,0,0,0-.139-1.884,3.732,3.732,0,0,0-1.768-.722,7.014,7.014,0,0,1-2.453-.967,6.88,6.88,0,0,1-1.656-2.02c-.393-.628-.84-1.339-1.249-1.473a.7.7,0,0,0-.2-.025,5.271,5.271,0,0,0-1.6.475,7.225,7.225,0,0,1-2.609.668,7.225,7.225,0,0,1-2.608-.668,5.331,5.331,0,0,0-1.6-.475.686.686,0,0,0-.2.025c-.409.134-.855.845-1.249,1.473A6.861,6.861,0,0,1,47.52,79.4a7.009,7.009,0,0,1-2.455.967,3.727,3.727,0,0,0-1.766.722,3.748,3.748,0,0,0-.139,1.884,7.082,7.082,0,0,1-.166,2.648,6.756,6.756,0,0,1-1.389,2.168c-.5.6-1.025,1.225-1.025,1.677s.521,1.073,1.025,1.674a6.791,6.791,0,0,1,1.389,2.171,7.081,7.081,0,0,1,.166,2.648,3.747,3.747,0,0,0,.139,1.884,3.747,3.747,0,0,0,1.77.722,6.962,6.962,0,0,1,2.451.967,6.819,6.819,0,0,1,1.655,2.019c.394.63.84,1.339,1.249,1.473a.642.642,0,0,0,.2.026,5.318,5.318,0,0,0,1.6-.475,13.5,13.5,0,0,1,1.383-.487c.016,0,.033-.007.048-.012a4.18,4.18,0,0,1,2.36,0l.039.009a13.421,13.421,0,0,1,1.387.488,5.265,5.265,0,0,0,1.6.474.631.631,0,0,0,.2-.025c.409-.134.856-.843,1.249-1.473A6.838,6.838,0,0,1,62.141,99.532Zm-7.31,1.02A11.087,11.087,0,1,1,65.917,89.466,11.1,11.1,0,0,1,54.831,100.552Z" fill="none"/>
    <polygon points="69.24 99.726 73.987 103.738 73.987 103.738 69.24 99.726" fill="none"/>
    <path d="M2.487,82.006l0,.012A6.581,6.581,0,0,0,7.3,88.335v-74.4H2.487Z" fill="#a2cbeb"/>
    <path d="M107.175,20.507c0-.005,0-.007,0-.01a6.58,6.58,0,0,0-4.82-6.319v74.4h4.816V20.507Z" fill="#a2cbeb"/>
    <path d="M109.658,20.52l0-.013a9.036,9.036,0,0,0-9.048-9.052H2.484v-2.4a6.569,6.569,0,0,1,13.137,0,1.242,1.242,0,0,0,2.484,0,9.053,9.053,0,0,0-18.1,0V12.7l0,.014V81.992l0,.014a9.05,9.05,0,0,0,9.052,9.053H35.469a1.243,1.243,0,0,0,0-2.485H9.052A6.46,6.46,0,0,1,7.3,88.336a6.581,6.581,0,0,1-4.82-6.318l0-.012V13.94h98.122a6.446,6.446,0,0,1,1.75.238,6.58,6.58,0,0,1,4.819,6.32s0,0,0,.011V88.575H74.189a1.242,1.242,0,0,0,0,2.484h32.99v2.405a6.569,6.569,0,0,1-13.138,0,1.242,1.242,0,1,0-2.484,0,9.052,9.052,0,0,0,18.1,0V89.816l0-.015V20.52Z" fill="#0065a5"/>
    <path d="M77.72,21.749a1.242,1.242,0,0,0,0-2.484H31.942a1.242,1.242,0,0,0,0,2.484Z" fill="#0065a5"/>
    <path d="M23.579,26.687a1.242,1.242,0,0,0,1.241,1.242H84.841a1.243,1.243,0,0,0,0-2.485H24.82A1.242,1.242,0,0,0,23.579,26.687Z" fill="#0065a5"/>
    <path d="M31.942,31.624A1.243,1.243,0,0,0,30.7,32.867v6.177a1.24,1.24,0,0,0,1.242,1.242H77.72a1.24,1.24,0,0,0,1.241-1.242V32.867a1.243,1.243,0,0,0-1.241-1.243ZM76.478,37.8H33.184V34.108H76.478Z" fill="#0065a5"/>
    <polygon points="33.184 34.108 33.184 37.802 33.184 37.802 76.478 37.802 76.478 34.108 33.184 34.108" fill="#a2cbeb"/>
    <path d="M11.655,45.225A1.242,1.242,0,0,0,12.9,46.467H96.765a1.242,1.242,0,0,0,0-2.484H12.9A1.241,1.241,0,0,0,11.655,45.225Z" fill="#0065a5"/>
    <path d="M12.9,52.647H96.765a1.242,1.242,0,0,0,0-2.484H12.9a1.242,1.242,0,1,0,0,2.484Z" fill="#0065a5"/>
    <path d="M12.9,58.826H96.765a1.242,1.242,0,0,0,0-2.484H12.9a1.242,1.242,0,1,0,0,2.484Z" fill="#0065a5"/>
    <path d="M12.9,65.005H96.765a1.242,1.242,0,0,0,0-2.484H12.9a1.242,1.242,0,0,0,0,2.484Z" fill="#0065a5"/>
    <path d="M12.9,71.185H96.765a1.243,1.243,0,0,0,0-2.485H12.9a1.243,1.243,0,0,0,0,2.485Z" fill="#0065a5"/>
    <path d="M65.917,89.466a11.087,11.087,0,1,0-11.086,11.086A11.1,11.1,0,0,0,65.917,89.466Zm-11.086,8.6a8.6,8.6,0,1,1,8.558-9.482c.029.289.045.583.045.879A8.612,8.612,0,0,1,54.831,98.069Z" fill="#0065a5"/>
    <path d="M77.966,104.2c0-.013-.009-.026-.011-.04-.012-.045-.027-.09-.043-.135s-.026-.068-.04-.1-.039-.075-.059-.112-.041-.066-.064-.1a.918.918,0,0,0-.077-.09c-.029-.032-.058-.064-.09-.094-.011-.01-.021-.022-.03-.032L69.008,96.28c-.008-.164-.02-.323-.03-.482a5.465,5.465,0,0,1,.05-1.718,5.107,5.107,0,0,1,.932-1.342,5.227,5.227,0,0,0,1.607-3.272A5.224,5.224,0,0,0,69.96,86.2a5.156,5.156,0,0,1-.932-1.342,5.47,5.47,0,0,1-.05-1.719,5.141,5.141,0,0,0-.609-3.507A5.174,5.174,0,0,0,65.2,77.956a5.306,5.306,0,0,1-1.6-.565,5.324,5.324,0,0,1-1.015-1.33A5.156,5.156,0,0,0,60,73.545a3.153,3.153,0,0,0-.962-.147,6.889,6.889,0,0,0-2.522.652,5.445,5.445,0,0,1-1.687.491,5.539,5.539,0,0,1-1.69-.491,6.874,6.874,0,0,0-2.517-.652,3.139,3.139,0,0,0-.965.147,5.18,5.18,0,0,0-2.588,2.516,5.3,5.3,0,0,1-1.014,1.33,5.3,5.3,0,0,1-1.6.565,5.184,5.184,0,0,0-3.169,1.671,5.145,5.145,0,0,0-.607,3.507,5.44,5.44,0,0,1-.05,1.719A5.164,5.164,0,0,1,39.7,86.2a5.213,5.213,0,0,0-1.606,3.271A5.216,5.216,0,0,0,39.7,92.738a5.206,5.206,0,0,1,.932,1.342,5.435,5.435,0,0,1,.05,1.718c-.012.159-.021.321-.029.482L32.111,103.5l-.029.03c-.036.032-.066.064-.1.1l-.069.082c-.026.039-.048.076-.07.112s-.037.065-.055.1a1.175,1.175,0,0,0-.044.114c-.013.04-.028.077-.038.117,0,.017-.01.033-.012.048a.361.361,0,0,0-.007.073c-.007.04-.011.08-.014.12s0,.085,0,.129.008.072.014.109a1.15,1.15,0,0,0,.027.127.659.659,0,0,0,.032.107,1.19,1.19,0,0,0,.05.118.712.712,0,0,0,.052.1,1,1,0,0,0,.079.117c.013.014.02.035.035.05a.238.238,0,0,0,.028.026,1.06,1.06,0,0,0,.129.122.824.824,0,0,0,.065.055,1.1,1.1,0,0,0,.156.092.762.762,0,0,0,.069.038,1.616,1.616,0,0,0,.174.059c.025,0,.048.017.072.023l.008,0,6.973,1.416.228,7.109c0,.015.005.028.009.042a.873.873,0,0,0,.016.135.854.854,0,0,0,.023.107,1.03,1.03,0,0,0,.039.119A.821.821,0,0,0,40,114.7a.869.869,0,0,0,.059.1,1.042,1.042,0,0,0,.072.106.373.373,0,0,0,.03.043c.011.015.027.024.039.039.037.037.075.075.113.107s.056.047.083.067a1.351,1.351,0,0,0,.133.077.542.542,0,0,0,.089.048,1.367,1.367,0,0,0,.164.054c.024.008.049.017.074.023a1.233,1.233,0,0,0,.235.025l.018,0h.005a.134.134,0,0,0,.035,0c.018,0,.034,0,.052,0a1.471,1.471,0,0,0,.164-.023c.03-.007.058-.015.085-.023a1.111,1.111,0,0,0,.134-.046c.029-.013.059-.024.089-.04a1.116,1.116,0,0,0,.112-.068.891.891,0,0,0,.087-.059c.012-.01.028-.017.04-.027l12.642-10.68a2.012,2.012,0,0,1,.278-.026,2.084,2.084,0,0,1,.279.026L67.75,115.1c.014.01.028.017.041.027a.691.691,0,0,0,.086.059,1.116,1.116,0,0,0,.112.068c.028.016.059.027.088.04a.787.787,0,0,0,.134.046c.028.008.054.016.083.023a1.577,1.577,0,0,0,.168.023c.018,0,.032,0,.049,0a.158.158,0,0,0,.037,0h0l.017,0a1.22,1.22,0,0,0,.237-.025c.028-.006.048-.015.075-.023a1.274,1.274,0,0,0,.165-.054c.031-.013.06-.033.091-.048a1.4,1.4,0,0,0,.128-.077c.03-.019.057-.045.085-.067a1.4,1.4,0,0,0,.111-.107c.012-.015.03-.024.041-.039s.018-.03.032-.043a1.088,1.088,0,0,0,.071-.106c.02-.032.041-.068.058-.1s.032-.072.047-.107.027-.08.039-.119.015-.073.024-.107.015-.089.017-.135c0-.014,0-.027,0-.042l.234-7.109L77,105.663l.007,0c.032-.008.058-.021.089-.028a1.444,1.444,0,0,0,.157-.052c.029-.013.056-.033.084-.048a1.165,1.165,0,0,0,.139-.081.707.707,0,0,0,.077-.064.963.963,0,0,0,.117-.113.17.17,0,0,0,.031-.029.579.579,0,0,0,.041-.06.729.729,0,0,0,.069-.1,1.165,1.165,0,0,0,.061-.109c.017-.035.032-.07.045-.1a1.1,1.1,0,0,0,.036-.124c.009-.036.017-.072.023-.108a.831.831,0,0,0,.013-.131,1.009,1.009,0,0,0,0-.11.881.881,0,0,0-.013-.135C77.968,104.24,77.972,104.219,77.966,104.2Zm-35.7,7.345-.177-5.527c0-.03-.009-.058-.012-.088,0-.047-.01-.094-.019-.141a6.492,6.492,0,0,0-.076-.227.956.956,0,0,0-.057-.11c-.019-.034-.037-.068-.057-.1s-.052-.065-.079-.1-.048-.059-.075-.087-.065-.052-.1-.08-.057-.049-.089-.069a1.219,1.219,0,0,0-.117-.064.834.834,0,0,0-.095-.047,1.042,1.042,0,0,0-.147-.045.483.483,0,0,0-.076-.025l-5.422-1.1L41.158,99.1c.039.068.084.134.131.2a5.178,5.178,0,0,0,3.168,1.67,5.319,5.319,0,0,1,1.6.566,5.329,5.329,0,0,1,1.014,1.329,5.277,5.277,0,0,0,2.516,2.49L47.413,107.2Zm16.97-8.519a.662.662,0,0,1-.2.025,5.265,5.265,0,0,1-1.6-.474,13.421,13.421,0,0,0-1.387-.488l-.039-.009a4.18,4.18,0,0,0-2.36,0c-.015.005-.032.007-.048.012a13.5,13.5,0,0,0-1.383.487,5.318,5.318,0,0,1-1.6.475.642.642,0,0,1-.2-.026c-.409-.134-.855-.843-1.249-1.473a6.819,6.819,0,0,0-1.655-2.019,6.981,6.981,0,0,0-2.451-.967,3.747,3.747,0,0,1-1.77-.722,3.747,3.747,0,0,1-.139-1.884,7.039,7.039,0,0,0-.166-2.648,6.791,6.791,0,0,0-1.389-2.171c-.5-.6-1.025-1.221-1.025-1.674s.521-1.073,1.025-1.677a6.756,6.756,0,0,0,1.389-2.168,7.041,7.041,0,0,0,.166-2.648,3.748,3.748,0,0,1,.139-1.884,3.727,3.727,0,0,1,1.766-.722A7.009,7.009,0,0,0,47.52,79.4a6.861,6.861,0,0,0,1.655-2.02c.394-.628.84-1.339,1.249-1.473a.727.727,0,0,1,.2-.025,5.331,5.331,0,0,1,1.6.475,7.225,7.225,0,0,0,2.608.668,7.225,7.225,0,0,0,2.609-.668,5.271,5.271,0,0,1,1.6-.475.662.662,0,0,1,.2.025c.409.134.856.845,1.249,1.473a6.88,6.88,0,0,0,1.656,2.02,7.014,7.014,0,0,0,2.453.967,3.732,3.732,0,0,1,1.768.722,3.76,3.76,0,0,1,.139,1.884,7.1,7.1,0,0,0,.165,2.648,6.7,6.7,0,0,0,1.391,2.168c.5.6,1.026,1.225,1.026,1.677s-.522,1.073-1.026,1.674a6.729,6.729,0,0,0-1.391,2.171,7.122,7.122,0,0,0-.166,2.648,3.722,3.722,0,0,1-.14,1.884,3.734,3.734,0,0,1-1.766.722,6.957,6.957,0,0,0-2.453.967,6.838,6.838,0,0,0-1.656,2.019C60.092,102.181,59.645,102.89,59.236,103.024Zm14.751.714-5.422,1.1c-.052.013-.1.031-.15.048-.017.007-.035.009-.052.016a1.044,1.044,0,0,0-.189.095c-.008.006-.015.007-.023.013a1.044,1.044,0,0,0-.165.129.1.1,0,0,0-.024.017,1.188,1.188,0,0,0-.127.145c-.009.012-.022.025-.034.038-.029.045-.056.095-.083.142-.011.026-.027.047-.039.073a1.41,1.41,0,0,0-.048.138c-.009.033-.02.063-.026.092a.961.961,0,0,0-.023.152c0,.028-.009.052-.009.08l-.18,5.527-7.321-6.183a5.285,5.285,0,0,0,2.52-2.49,10.257,10.257,0,0,1,.678-1,1.891,1.891,0,0,1,.333-.332,4.5,4.5,0,0,1,1.366-.507l.234-.059a5.168,5.168,0,0,0,3.167-1.67c.046-.067.091-.135.133-.2l.737.622,4.747,4.012Z" fill="#0065a5"/>
    <path d="M47.071,102.872a5.326,5.326,0,0,0-1.014-1.331,5.319,5.319,0,0,0-1.6-.566,5.178,5.178,0,0,1-3.168-1.67c-.047-.067-.09-.133-.131-.2l-5.486,4.634,5.422,1.1a.483.483,0,0,1,.076.025,1.042,1.042,0,0,1,.147.045.759.759,0,0,1,.095.047,1.11,1.11,0,0,1,.117.064c.032.02.059.047.089.069s.068.053.1.08.049.058.075.087.054.062.079.1.037.064.057.1a.948.948,0,0,1,.056.11,1,1,0,0,1,.041.116,1.023,1.023,0,0,1,.035.111c.009.047.014.094.019.141,0,.03.01.057.012.088l.177,5.527,5.147-4.347,2.174-1.837A5.275,5.275,0,0,1,47.071,102.872Z" fill="#a2cbeb"/>
    <path d="M68.5,99.1c-.042.068-.087.134-.134.2a5.162,5.162,0,0,1-3.167,1.67l-.233.059a4.508,4.508,0,0,0-1.367.507,2,2,0,0,0-.333.332,10.234,10.234,0,0,0-.677,1,5.3,5.3,0,0,1-2.52,2.488l7.321,6.183.18-5.527c0-.027.008-.052.009-.08a.966.966,0,0,1,.023-.151c.006-.03.017-.059.025-.091.016-.047.028-.095.048-.14.013-.025.028-.047.04-.072.027-.047.054-.1.083-.141.012-.015.025-.027.034-.04a1.6,1.6,0,0,1,.126-.145l.024-.016a1.04,1.04,0,0,1,.166-.129c.008-.006.015-.008.023-.014a1.007,1.007,0,0,1,.189-.093c.015-.008.035-.011.052-.018.049-.017.1-.035.15-.048l5.422-1.1h0L69.24,99.726Z" fill="#a2cbeb"/>
    <path d="M63.389,88.587a8.6,8.6,0,1,0,.045.879A8.508,8.508,0,0,0,63.389,88.587Z" fill="#a2cbeb"/>
  </g>
</svg>
