<svg id="education" xmlns="http://www.w3.org/2000/svg" width="82.057" height="122.759" viewBox="0 0 82.057 122.759">
  <title>Artboard 8</title>
  <g>
    <path d="M40.49,2.519a1.446,1.446,0,0,0-.151.02c-.045.007-.093.015-.137.025H40.19c.109-.02.221-.036.332-.049Z" fill="none"/>
    <path d="M39.561,2.736c-.04.011-.077.027-.117.041l-.061.027c.095-.037.191-.073.289-.1C39.636,2.71,39.6,2.721,39.561,2.736Z" fill="none"/>
    <path d="M16.135,22.281a2.911,2.911,0,1,0-2.909-2.911A2.913,2.913,0,0,0,16.135,22.281Z" fill="none"/>
    <path d="M38.9,3.031c-.1.057-.2.118-.3.183.1-.065.2-.128.3-.184Z" fill="none"/>
    <path d="M39.041,2.957l-.091.048c.066-.035.133-.065.2-.1C39.115,2.925,39.077,2.938,39.041,2.957Z" fill="none"/>
    <path d="M36.945,5.2l-.005.011c-.027.06-.05.121-.072.182s-.047.134-.069.2-.038.132-.057.2h.007A4.259,4.259,0,0,1,36.945,5.2Z" fill="none"/>
    <path d="M40.838,2.489c-.065,0-.127.005-.192.013l-.031,0c.137-.012.275-.02.414-.02C40.965,2.485,40.9,2.487,40.838,2.489Z" fill="none"/>
    <path d="M41,11.341h.022l-.022,0Z" fill="none"/>
    <path d="M39.737,2.678c.11-.034.222-.062.336-.086C39.959,2.616,39.848,2.644,39.737,2.678Z" fill="none"/>
    <path d="M65.922,22.281a2.911,2.911,0,1,0-2.908-2.911A2.913,2.913,0,0,0,65.922,22.281Z" fill="none"/>
    <path d="M37.154,4.772c.055-.1.115-.2.178-.293C37.268,4.574,37.209,4.672,37.154,4.772Z" fill="none"/>
    <path d="M37.962,3.724c.054-.05.108-.1.163-.147C38.07,3.624,38.016,3.674,37.962,3.724Z" fill="none"/>
    <path d="M38.445,3.319c-.044.031-.086.062-.128.1-.02.015-.037.031-.055.046.077-.062.158-.122.239-.179Z" fill="none"/>
    <path d="M37.472,4.275c-.035.048-.067.095-.1.142l0,0c.068-.1.14-.192.214-.284C37.545,4.181,37.508,4.227,37.472,4.275Z" fill="none"/>
    <path d="M37.745,3.945c-.037.038-.07.079-.1.119.056-.066.115-.13.175-.193C37.793,3.9,37.768,3.919,37.745,3.945Z" fill="none"/>
    <path d="M37.039,4.986c-.028.06-.055.123-.082.186.05-.118.107-.234.166-.346C37.094,4.877,37.065,4.931,37.039,4.986Z" fill="none"/>
    <path d="M31.336,54.238h0a5.649,5.649,0,0,1,5.644,5.641A5.649,5.649,0,0,0,31.336,54.238Z" fill="none"/>
    <path d="M50.6,77.922a1.244,1.244,0,0,1-1.243-1.243h0a1.242,1.242,0,1,0,2.484,0h0A1.242,1.242,0,0,1,50.6,77.922Z" fill="none"/>
    <path d="M29.919,99.133h3.906v16.372H52.141v-3.769H38.3a1.242,1.242,0,1,1,0-2.484H52.141v-3.637H38.3a1.242,1.242,0,1,1,0-2.484H52.141v-4H29.919Z" fill="none"/>
    <path d="M37.862,10c-.045-.046-.087-.095-.13-.143C37.775,9.906,37.816,9.955,37.862,10Z" fill="#a2cbeb"/>
    <path d="M37.56,9.658c-.039-.051-.077-.1-.114-.154C37.483,9.556,37.521,9.607,37.56,9.658Z" fill="#a2cbeb"/>
    <path d="M36.609,6.622c-.007.095-.009.192-.009.289,0-.13.008-.258.02-.386C36.616,6.558,36.612,6.59,36.609,6.622Z" fill="#a2cbeb"/>
    <path d="M37.238,9.2c.016.027.036.05.052.076-.033-.051-.065-.105-.1-.158C37.209,9.144,37.222,9.173,37.238,9.2Z" fill="#a2cbeb"/>
    <path d="M36.624,7.391c.016.127.032.251.058.373l.006.029a4.412,4.412,0,0,1-.088-.882C36.6,7.073,36.609,7.234,36.624,7.391Z" fill="#a2cbeb"/>
    <path d="M36.689,6.025a1.734,1.734,0,0,0-.029.173,1.428,1.428,0,0,0-.026.172l0,.032c.015-.127.032-.256.059-.38Z" fill="#a2cbeb"/>
    <path d="M36.929,8.58c-.042-.1-.08-.2-.115-.311C36.849,8.376,36.886,8.479,36.929,8.58Z" fill="#a2cbeb"/>
    <path d="M37.027,8.806a.1.1,0,0,0,.012.026c.013.026.029.051.042.077-.034-.067-.066-.134-.1-.2C37,8.74,37.012,8.774,37.027,8.806Z" fill="#a2cbeb"/>
    <path d="M25.466,23.717a16.732,16.732,0,0,1-5.24-.837,5.415,5.415,0,0,1-1.59,1.266L22.9,40.835V27.6s17.017.117,18.078-13.77l-.191-.008A16.91,16.91,0,0,1,25.466,23.717Z" fill="#a2cbeb"/>
    <path d="M40.688,11.323c.03,0,.06.009.091.01.059,0,.118,0,.178,0a.253.253,0,0,0,.047,0v0C40.9,11.338,40.793,11.332,40.688,11.323Z" fill="#a2cbeb"/>
    <path d="M39.7,11.134h0c-.011,0-.02-.009-.031-.012Z" fill="#a2cbeb"/>
    <path d="M36.8,8.211c-.04-.128-.072-.257-.1-.388C36.722,7.954,36.755,8.082,36.8,8.211Z" fill="#a2cbeb"/>
    <path d="M38.072,10.2c.04.036.079.074.12.11C38.151,10.273,38.112,10.235,38.072,10.2Z" fill="#a2cbeb"/>
    <path d="M36.742,5.793c-.017.074-.036.146-.051.22.016-.075.038-.147.058-.221Z" fill="#a2cbeb"/>
    <path d="M39.3,10.988l-.005,0Z" fill="#a2cbeb"/>
    <path d="M40.436,11.3c-.069-.009-.14-.019-.209-.031C40.3,11.277,40.367,11.287,40.436,11.3Z" fill="#a2cbeb"/>
    <path d="M39.861,11.185c.041.01.083.016.124.025-.082-.019-.162-.037-.242-.061Z" fill="#a2cbeb"/>
    <path d="M41.029,38.031A30.111,30.111,0,0,0,27.435,95.013v1.635H25.846a1.242,1.242,0,1,0,0,2.484h1.589v17.615a1.244,1.244,0,0,0,1.242,1.243h5.1v3.527a1.241,1.241,0,0,0,1.242,1.242H47.046a1.239,1.239,0,0,0,1.242-1.242V117.99h5.1a1.243,1.243,0,0,0,1.241-1.243v-5.01h1.591a1.243,1.243,0,0,0,0-2.485H54.624v-3.636h1.591a1.243,1.243,0,0,0,0-2.485H54.624v-4h1.591a1.243,1.243,0,0,0,0-2.485H54.624V95.013A30.113,30.113,0,0,0,41.029,38.031ZM45.8,117.99v2.284H36.257V117.99H45.8Zm6.337-14.859H38.3a1.243,1.243,0,1,0,0,2.485H52.141v3.636H38.3a1.243,1.243,0,1,0,0,2.485H52.141v3.768H29.919V99.133H52.141Zm.71-10.011c-.025.012-.044.027-.067.04a1.115,1.115,0,0,0-.121.074.8.8,0,0,0-.09.075.885.885,0,0,0-.092.082c-.027.03-.049.062-.074.092s-.05.064-.073.1-.037.066-.054.1a.992.992,0,0,0-.053.114.838.838,0,0,0-.034.111.971.971,0,0,0-.03.118.845.845,0,0,0-.015.136.758.758,0,0,0-.008.082v2.405H29.919V94.243c0-.03,0-.057-.007-.087a1.168,1.168,0,0,0-.015-.131.723.723,0,0,0-.029-.12c-.01-.036-.02-.074-.033-.109s-.035-.077-.054-.114a1.063,1.063,0,0,0-.055-.1c-.022-.033-.048-.065-.072-.1s-.048-.062-.075-.091-.06-.058-.091-.085a1.013,1.013,0,0,0-.09-.072.9.9,0,0,0-.119-.072c-.025-.015-.045-.03-.07-.042a27.573,27.573,0,0,1-8.583-6.377c-.215-.239-.429-.48-.638-.726A27.851,27.851,0,0,1,17.7,82.907c-.171-.27-.338-.546-.5-.824s-.321-.557-.473-.84a28.03,28.03,0,0,1-1.423-3.065c-.117-.3-.231-.6-.338-.907a27.621,27.621,0,1,1,53.688-9.129,27.141,27.141,0,0,1-.445,4.9A27.806,27.806,0,0,1,52.851,93.12Z" fill="#0065a5"/>
    <rect x="36.257" y="117.99" width="9.547" height="2.285" fill="#a2cbeb"/>
    <path d="M41.029,40.516A27.587,27.587,0,0,0,14.97,77.271c.107.306.221.606.338.907a28.2,28.2,0,0,0,1.423,3.065c.152.283.311.564.473.84s.33.554.5.824a27.851,27.851,0,0,0,2.283,3.111c.209.246.423.487.638.725a27.558,27.558,0,0,0,8.583,6.377c.025.013.045.027.07.043a.89.89,0,0,1,.119.071c.032.023.06.047.09.073a1.206,1.206,0,0,1,.091.085c.027.029.05.059.075.091s.05.065.072.1a1.063,1.063,0,0,1,.055.1c.019.037.037.073.054.114s.023.072.033.109a.712.712,0,0,1,.029.119,1.213,1.213,0,0,1,.015.132c0,.03.007.056.007.087v2.4H52.141v-2.4a.756.756,0,0,1,.007-.082.857.857,0,0,1,.015-.137c.008-.04.018-.077.03-.117a.8.8,0,0,1,.034-.111.919.919,0,0,1,.053-.114c.017-.036.035-.068.055-.1s.047-.066.072-.1.047-.062.074-.091a.881.881,0,0,1,.093-.082.707.707,0,0,1,.089-.075,1.3,1.3,0,0,1,.121-.075c.023-.012.043-.027.067-.039A27.8,27.8,0,0,0,68.213,73.042a27.146,27.146,0,0,0,.445-4.9A27.659,27.659,0,0,0,41.029,40.516ZM39.464,59.884V81.605a1.242,1.242,0,1,1-2.484,0V70.91H25.694v10.7a1.242,1.242,0,1,1-2.484,0V59.882A8.127,8.127,0,0,1,39.3,58.247a7.844,7.844,0,0,1,.123.8,8.119,8.119,0,0,1,.043.83ZM57.606,70.91H51.837v5.769h0a1.242,1.242,0,1,1-2.484,0h0V70.91H43.582a1.243,1.243,0,0,1,0-2.485h5.771V62.654a1.242,1.242,0,1,1,2.484,0v5.771h5.769a1.243,1.243,0,0,1,0,2.485Z" fill="#a2cbeb"/>
    <path d="M5.952,48.756l3.942,2.277a1.233,1.233,0,0,0,.62.166,1.242,1.242,0,0,0,.622-2.318L7.194,46.6a1.242,1.242,0,0,0-1.242,2.152Z" fill="#0065a5"/>
    <path d="M7.037,67.575a1.241,1.241,0,0,0-1.243-1.242H1.241a1.242,1.242,0,0,0,0,2.483H5.794A1.243,1.243,0,0,0,7.037,67.575Z" fill="#0065a5"/>
    <path d="M9.894,84.116,5.952,86.391a1.242,1.242,0,0,0,1.241,2.152l3.943-2.275a1.242,1.242,0,1,0-1.242-2.152Z" fill="#0065a5"/>
    <path d="M76.106,86.393l-3.941-2.275a1.242,1.242,0,1,0-1.242,2.151l3.942,2.275a1.242,1.242,0,1,0,1.241-2.151Z" fill="#0065a5"/>
    <path d="M80.815,66.333H76.266a1.242,1.242,0,1,0,0,2.484h4.549a1.242,1.242,0,1,0,0-2.484Z" fill="#0065a5"/>
    <path d="M70.47,50.579a1.243,1.243,0,0,0,1.7.454l3.941-2.277A1.242,1.242,0,0,0,74.865,46.6l-3.942,2.277A1.242,1.242,0,0,0,70.47,50.579Z" fill="#0065a5"/>
    <path d="M39.3,58.247A8.127,8.127,0,0,0,23.21,59.882V81.605a1.242,1.242,0,1,0,2.484,0V70.91H36.98v10.7a1.242,1.242,0,1,0,2.484,0V59.882a8.119,8.119,0,0,0-.043-.83A7.844,7.844,0,0,0,39.3,58.247ZM36.98,59.882h0v8.543H25.694V59.882a5.65,5.65,0,0,1,5.642-5.644h0a5.649,5.649,0,0,1,5.644,5.641Z" fill="#0065a5"/>
    <path d="M31.336,54.238h0a5.65,5.65,0,0,0-5.642,5.645v8.542H36.98V59.883h0v0A5.649,5.649,0,0,0,31.336,54.238Z" fill="#a2cbeb"/>
    <path d="M57.606,68.425H51.837V62.654a1.242,1.242,0,1,0-2.484,0v5.771H43.582a1.243,1.243,0,0,0,0,2.485h5.771v5.769a1.242,1.242,0,1,0,2.484,0V70.91h5.769a1.243,1.243,0,0,0,0-2.485Z" fill="#0065a5"/>
    <path d="M16.135,24.765l.094,0,3.793,14.85.47,1.836a1.245,1.245,0,0,0,1.2.936A1.2,1.2,0,0,0,22,42.346a1.243,1.243,0,0,0,.9-1.511L18.636,24.146a5.415,5.415,0,0,0,1.59-1.266,16.732,16.732,0,0,0,5.24.837,16.91,16.91,0,0,0,15.32-9.9l.191.008h.052c.082,0,.162-.006.243-.008a16.909,16.909,0,0,0,15.321,9.9,16.735,16.735,0,0,0,5.239-.837,5.4,5.4,0,0,0,1.59,1.266L59.156,40.833a1.241,1.241,0,0,0,.9,1.51,1.28,1.28,0,0,0,.31.04,1.246,1.246,0,0,0,1.2-.937l4.266-16.683.093,0a5.393,5.393,0,1,0-5.241-4.126,14.205,14.205,0,0,1-4.088.593,14.42,14.42,0,0,1-12.837-7.969,6.912,6.912,0,1,0-9.641-6.352c0,.057,0,.112,0,.17A6.928,6.928,0,0,0,38.3,13.263a14.416,14.416,0,0,1-12.835,7.969,14.209,14.209,0,0,1-4.09-.593,5.312,5.312,0,0,0,.152-1.269,5.393,5.393,0,1,0-5.393,5.4Zm49.787-8.3a2.911,2.911,0,1,1-2.908,2.91A2.913,2.913,0,0,1,65.922,16.46ZM37.862,10c-.046-.046-.087-.095-.13-.143-.058-.065-.116-.132-.171-.2-.04-.051-.077-.1-.115-.154-.054-.075-.106-.15-.156-.229-.016-.026-.036-.049-.051-.076s-.029-.055-.044-.082c-.04-.069-.078-.138-.114-.208-.013-.026-.029-.051-.042-.077a.1.1,0,0,1-.011-.026c-.016-.032-.029-.066-.044-.1s-.037-.086-.055-.128c-.041-.1-.08-.2-.114-.311-.006-.019-.013-.038-.02-.058-.04-.129-.072-.257-.1-.388,0-.011-.005-.02-.006-.03s-.005-.02-.006-.029c-.026-.122-.043-.246-.058-.373-.014-.157-.025-.318-.025-.48,0-.1,0-.194.011-.289,0-.032.005-.064.009-.1s.007-.083.012-.123l0-.032A1.251,1.251,0,0,1,36.66,6.2a1.759,1.759,0,0,1,.03-.174h0l0-.01c.014-.074.033-.146.05-.221s.037-.131.057-.2.045-.136.07-.2.044-.122.072-.182l0-.012.011-.025c.027-.064.054-.127.083-.187s.055-.108.084-.16l.03-.053c.055-.1.115-.2.179-.294.013-.019.025-.039.038-.059l0,0c.032-.046.064-.093.1-.141s.073-.094.112-.14c.019-.025.038-.049.057-.071.034-.04.067-.081.1-.119s.048-.048.072-.074c.047-.049.095-.1.145-.147s.108-.1.162-.147.09-.08.137-.117l.055-.046c.042-.033.085-.064.129-.1l.056-.038c.032-.023.065-.046.1-.067.1-.065.2-.127.3-.183h0l.048-.025.09-.048c.036-.019.074-.031.109-.049.077-.036.154-.072.233-.1l.061-.027c.04-.014.077-.03.117-.041s.075-.026.111-.037l.065-.021c.111-.034.222-.062.336-.086l.118-.026.012,0c.044-.01.091-.018.136-.025s.1-.015.152-.02c.01,0,.021,0,.031,0l.094-.011a.3.3,0,0,1,.031,0c.064-.008.127-.01.191-.013s.127,0,.191,0a4.428,4.428,0,1,1,0,8.856h-.024a.263.263,0,0,1-.048,0c-.06,0-.119,0-.178,0-.031,0-.061-.007-.091-.01-.085-.006-.168-.015-.252-.027-.069-.009-.14-.019-.209-.031s-.161-.035-.242-.054c-.04-.01-.083-.016-.123-.026l-.119-.036-.047-.014h0l-.029-.011c-.125-.041-.248-.085-.367-.135l-.005,0a4.451,4.451,0,0,1-1.1-.677c-.042-.035-.081-.073-.121-.11C38,10.134,37.929,10.07,37.862,10ZM16.135,16.46a2.911,2.911,0,1,1-2.909,2.91A2.914,2.914,0,0,1,16.135,16.46Z" fill="#0065a5"/>
    <path d="M39.294,10.985l0,0c.12.051.243.1.368.135.01,0,.019.008.03.012l.047.014c.08.023.16.042.242.061s.16.039.242.054.14.023.209.032c.084.012.167.02.252.027.1.008.209.015.316.015l.022,0h0a4.428,4.428,0,1,0,0-8.856c-.139,0-.278.008-.414.02l-.093.012c-.111.012-.222.028-.332.049l-.118.026c-.114.025-.225.053-.336.086l-.064.021c-.1.032-.194.069-.289.106-.079.032-.156.067-.234.1s-.133.062-.2.1l-.048.025c-.1.057-.2.119-.3.184-.034.022-.066.044-.1.067-.081.057-.162.117-.24.179-.046.038-.091.078-.137.117s-.109.1-.162.147-.1.1-.146.148-.118.126-.174.193c-.02.022-.039.045-.058.069-.075.093-.146.187-.214.285-.013.021-.025.04-.038.059-.063.1-.123.194-.179.294-.01.018-.019.036-.03.053-.059.114-.116.228-.166.348l-.012.025a4.229,4.229,0,0,0-.2.595c-.02.072-.042.144-.058.219v.011c-.027.124-.044.251-.059.38-.005.04-.009.081-.012.122-.011.128-.02.256-.02.386a4.42,4.42,0,0,0,.089.882l.006.029c.028.132.061.261.1.389.006.02.014.039.019.059.035.105.072.209.114.31.018.043.036.085.056.128.031.067.063.135.1.2s.073.14.113.209c.031.053.063.106.1.158.049.078.1.154.156.228.037.052.075.1.114.154.055.069.113.135.172.2.042.048.084.1.129.143.068.069.138.134.21.2.04.036.08.075.121.11A4.409,4.409,0,0,0,39.294,10.985Z" fill="#a2cbeb"/>
    <polygon points="29.919 99.133 29.919 99.133 29.919 115.506 33.825 115.506 33.825 115.505 33.825 99.133 29.919 99.133" fill="#a2cbeb"/>
  </g>
</svg>
