<svg id="education" xmlns="http://www.w3.org/2000/svg" width="104.038" height="116.444" viewBox="0 0 104.038 116.444">
  <title>Artboard 13</title>
  <g>
    <path d="M98.624,58.188H43.5A5.418,5.418,0,0,0,38.09,63.6v37.6a5.419,5.419,0,0,0,5.413,5.412h3.1v8.6a.549.549,0,0,0,.008.075,1.253,1.253,0,0,0,.012.135,1.152,1.152,0,0,0,.03.119,1.08,1.08,0,0,0,.035.11c.019.045.037.086.056.126.014.025.022.046.034.07a.369.369,0,0,0,.025.034.361.361,0,0,0,.034.049.868.868,0,0,0,.114.141.092.092,0,0,1,.022.022.892.892,0,0,0,.164.136.368.368,0,0,0,.039.024,1.136,1.136,0,0,0,.161.088c.011,0,.022.013.034.018a1.117,1.117,0,0,0,.2.062c.017,0,.034.007.05.009a1.146,1.146,0,0,0,.447,0,.232.232,0,0,1,.049-.009,1.727,1.727,0,0,0,.2-.064l.008,0a1.132,1.132,0,0,0,.151-.078l16.156-9.66H98.624a5.418,5.418,0,0,0,5.414-5.412V63.6A5.419,5.419,0,0,0,98.624,58.188Zm2.929,43.008a2.932,2.932,0,0,1-2.929,2.928H64.3a.677.677,0,0,0-.07.008,1.415,1.415,0,0,0-.146.014.882.882,0,0,0-.11.027c-.039.013-.078.02-.12.038a.92.92,0,0,0-.118.056.461.461,0,0,0-.074.036l-14.569,8.709v-7.644a1.239,1.239,0,0,0-1.241-1.243H43.5a2.932,2.932,0,0,1-2.929-2.929V63.6a2.932,2.932,0,0,1,2.929-2.93H98.624a2.933,2.933,0,0,1,2.929,2.93v37.6Z" fill="#0065a5"/>
    <path d="M98.624,60.671H43.5a2.932,2.932,0,0,0-2.929,2.93v37.6a2.931,2.931,0,0,0,2.929,2.928h4.345a1.241,1.241,0,0,1,1.241,1.244v7.644l14.569-8.71c.023-.015.048-.023.074-.037s.076-.038.118-.054.081-.026.12-.04.072-.019.11-.025a1.184,1.184,0,0,1,.146-.015c.022,0,.045-.007.07-.007H98.624a2.933,2.933,0,0,0,2.929-2.93V63.6A2.933,2.933,0,0,0,98.624,60.671ZM61.929,94.252a1.243,1.243,0,0,1-2.486,0V86.221H50.516v8.031a1.243,1.243,0,0,1-2.485,0v-18a6.949,6.949,0,0,1,13.9,0v18ZM77.34,84.845a7.134,7.134,0,0,1-6.282,10.52h-5.9a1.241,1.241,0,0,1-1.24-1.243V70.541a1.242,1.242,0,0,1,1.24-1.243h5.9a7.136,7.136,0,0,1,4.016,13.035A7.164,7.164,0,0,1,77.34,84.845Zm9.806,8.166a4.469,4.469,0,0,0,4.465-4.465,1.243,1.243,0,0,1,2.486,0,6.95,6.95,0,0,1-13.9,0V76.25a6.95,6.95,0,0,1,13.9,0,1.243,1.243,0,0,1-2.486,0,4.464,4.464,0,1,0-8.927,0v12.3A4.468,4.468,0,0,0,87.146,93.011Z" fill="#a2cbeb"/>
    <path d="M54.979,69.3a6.954,6.954,0,0,0-6.948,6.947v18a1.243,1.243,0,0,0,2.485,0V86.221h8.927v8.031a1.243,1.243,0,0,0,2.486,0v-18A6.955,6.955,0,0,0,54.979,69.3Zm4.464,14.433H50.516V76.25a4.464,4.464,0,1,1,8.927,0v7.486Z" fill="#0065a5"/>
    <path d="M59.443,76.25v7.486H50.516V76.25a4.464,4.464,0,1,1,8.927,0Z" fill="#a2cbeb"/>
    <path d="M94.1,88.546a6.95,6.95,0,0,1-13.9,0V76.25a6.95,6.95,0,0,1,13.9,0,1.243,1.243,0,0,1-2.486,0,4.464,4.464,0,1,0-8.927,0v12.3a4.464,4.464,0,1,0,8.927,0,1.243,1.243,0,0,1,2.486,0Z" fill="#0065a5"/>
    <path d="M75.074,82.333A7.139,7.139,0,0,0,71.058,69.3h-5.9a1.242,1.242,0,0,0-1.24,1.243V94.122a1.241,1.241,0,0,0,1.24,1.243h5.9a7.135,7.135,0,0,0,4.016-13.032ZM66.405,71.784h4.653a4.654,4.654,0,0,1,0,9.308H66.405Zm4.653,21.1H66.405V83.575h4.653a4.653,4.653,0,0,1,0,9.306Z" fill="#0065a5"/>
    <path d="M75.711,88.229a4.66,4.66,0,0,1-4.653,4.652H66.405V83.575h4.653A4.661,4.661,0,0,1,75.711,88.229Z" fill="#a2cbeb"/>
    <path d="M75.711,76.437a4.661,4.661,0,0,1-4.653,4.655H66.405v-9.31h4.653A4.662,4.662,0,0,1,75.711,76.437Z" fill="#a2cbeb"/>
    <path d="M34.658,87.949H19.394v-17.1a1.241,1.241,0,0,0-1.244-1.24H4.728c4.709-4.449,8.127-11.09,9.969-19.438a61.482,61.482,0,0,0,1.466-13.7,34,34,0,0,1,68,.016V56.266a1.242,1.242,0,1,0,2.484,0V36.484a36.484,36.484,0,1,0-72.967,0v.038c.006.236.531,23.744-13.124,33.29l-.024.015h0v0a1.377,1.377,0,0,0-.183.157c-.013.014-.023.031-.034.043a1.045,1.045,0,0,0-.116.149c-.011.018-.019.036-.03.054a1.4,1.4,0,0,0-.079.16.558.558,0,0,0-.018.058,1.191,1.191,0,0,0-.048.172c-.005.024-.005.049-.008.076A1.2,1.2,0,0,0,0,70.845v.015c0,.028.008.051.009.075a1.223,1.223,0,0,0,.212.616l0,.008a1.283,1.283,0,0,0,.126.15.23.23,0,0,0,.033.03,1.18,1.18,0,0,0,.356.241L.774,72a1.034,1.034,0,0,0,.207.065.274.274,0,0,0,.028,0,1.15,1.15,0,0,0,.235.024H16.909v17.1a1.243,1.243,0,0,0,1.241,1.242H33.415V115.2a1.242,1.242,0,0,0,2.484,0V89.191A1.24,1.24,0,0,0,34.658,87.949Z" fill="#0065a5"/>
    <path d="M61.043,17.061a8.8,8.8,0,0,0-8.787,8.787,1.243,1.243,0,0,0,2.485,0,6.3,6.3,0,0,1,12.605,0V40.129a8.779,8.779,0,0,0-15,4.869H46.2a8.777,8.777,0,0,0-15-4.869V25.848a6.3,6.3,0,1,1,12.6,0,1.242,1.242,0,1,0,2.484,0,8.786,8.786,0,1,0-17.571,0V46.241A8.784,8.784,0,0,0,46.2,47.482h6.149A8.786,8.786,0,0,0,69.83,46.245v-20.4A8.8,8.8,0,0,0,61.043,17.061ZM43.8,46.243a6.3,6.3,0,1,1-6.3-6.3,6.307,6.307,0,0,1,6.3,6.3Zm17.239,6.3a6.3,6.3,0,1,1,6.3-6.3A6.308,6.308,0,0,1,61.043,52.543Z" fill="#0065a5"/>
    <path d="M43.8,46.241v0a6.3,6.3,0,1,1-6.3-6.3A6.307,6.307,0,0,1,43.8,46.243Z" fill="#a2cbeb"/>
    <path d="M67.346,46.241a6.3,6.3,0,1,1-6.3-6.3A6.309,6.309,0,0,1,67.346,46.241Z" fill="#a2cbeb"/>
  </g>
</svg>
